<?xml version="1.0" encoding="iso-8859-1"?>
<!-- Generator: Adobe Illustrator 19.0.0, SVG Export Plug-In . SVG Version: 6.00 Build 0)  -->
<svg version="1.1" id="Layer_1" xmlns="http://www.w3.org/2000/svg" xmlns:xlink="http://www.w3.org/1999/xlink" x="0px" y="0px"
	 viewBox="0 0 512 512" style="enable-background:new 0 0 512 512;" xml:space="preserve">
<path style="fill:#B3404A;" d="M124.303,170.634H33.269c-9.059,0-16.406-7.345-16.406-16.406s7.346-16.406,16.406-16.406h91.033
	c9.059,0,16.406,7.345,16.406,16.406S133.362,170.634,124.303,170.634z"/>
<path style="fill:#F4B2B0;" d="M323.67,256L214.66,149.932V32.49c0-14.271,17.229-21.447,27.358-11.394L478.733,256L242.018,490.904
	c-10.13,10.052-27.358,2.878-27.358-11.394V362.068L323.67,256z"/>
<g>
	<path style="fill:#B3404A;" d="M490.289,244.355L253.574,9.45C247.433,3.357,239.355,0,230.827,0
		c-17.961,0-32.572,14.575-32.572,32.49v117.442c0,4.429,1.791,8.669,4.964,11.758L300.144,256l-87.732,85.366H33.269
		c-9.059,0-16.406,7.345-16.406,16.406s7.346,16.406,16.406,16.406h164.985v105.333c0,17.915,14.611,32.49,32.572,32.49
		c8.528,0,16.606-3.357,22.746-9.45l236.715-234.906c3.104-3.079,4.849-7.273,4.849-11.645
		C495.137,251.628,493.393,247.435,490.289,244.355z M231.067,478.656V368.996l104.044-101.238
		c3.174-3.088,4.964-7.328,4.964-11.758c0-4.429-1.791-8.67-4.964-11.758L231.067,143.005l0.005-109.661l224.372,222.657
		L231.067,478.656z"/>
	<path style="fill:#B3404A;" d="M225.107,272.406H68.836c-9.059,0-16.406-7.345-16.406-16.406s7.346-16.406,16.406-16.406h156.271
		c9.059,0,16.406,7.345,16.406,16.406S234.166,272.406,225.107,272.406z"/>
</g>
<g>
</g>
<g>
</g>
<g>
</g>
<g>
</g>
<g>
</g>
<g>
</g>
<g>
</g>
<g>
</g>
<g>
</g>
<g>
</g>
<g>
</g>
<g>
</g>
<g>
</g>
<g>
</g>
<g>
</g>
</svg>
